<?xml version="1.0" standalone="no"?>
<!DOCTYPE svg PUBLIC "-//W3C//DTD SVG 20010904//EN"
 "http://www.w3.org/TR/2001/REC-SVG-20010904/DTD/svg10.dtd">
<svg version="1.0" xmlns="http://www.w3.org/2000/svg"
 width="300.000000pt" height="252.000000pt" viewBox="0 0 300.000000 252.000000"
 preserveAspectRatio="xMidYMid meet">
<metadata>
Created by potrace 1.10, written by Peter Selinger 2001-2011
</metadata>
<g transform="translate(0.000000,252.000000) scale(0.100000,-0.100000)"
fill="#000000" stroke="none">
<path d="M367 2513 c189 -2 497 -2 685 0 189 1 35 2 -342 2 -377 0 -531 -1
-343 -2z"/>
<path d="M1428 2509 c-12 -7 -18 -22 -18 -48 0 -37 -2 -39 -46 -51 -25 -7 -52
-22 -59 -34 -27 -42 -38 -209 -32 -460 4 -133 9 -254 13 -271 4 -19 3 -26 -3
-20 -16 17 -117 515 -118 580 -1 70 -30 157 -62 190 -60 59 -164 28 -178 -54
-9 -54 11 -163 33 -181 13 -11 32 -81 70 -260 29 -135 55 -253 58 -263 5 -16
1 -18 -31 -15 l-37 3 -123 272 c-122 269 -123 273 -108 303 40 81 -60 167
-134 115 -29 -20 -46 -75 -34 -106 11 -31 32 -48 67 -58 24 -6 40 -35 144
-266 l118 -260 -72 -3 c-39 -2 -86 0 -104 3 -40 7 -67 45 -58 81 6 21 11 25
29 19 70 -23 107 9 47 40 -78 40 -136 -26 -94 -106 31 -60 16 -59 789 -59 749
0 746 0 787 47 49 54 22 127 -46 127 -42 0 -72 -24 -62 -49 4 -12 13 -15 26
-11 11 3 29 9 39 12 13 4 23 -1 30 -14 15 -27 -3 -66 -36 -81 -29 -13 -196
-15 -191 -2 2 6 55 125 118 265 102 227 118 256 138 256 37 0 72 43 72 89 0
32 -6 44 -31 65 -41 35 -83 34 -120 -3 -32 -33 -38 -74 -14 -108 13 -19 12
-27 -18 -89 -18 -38 -76 -162 -127 -276 l-94 -208 -33 0 c-18 0 -33 3 -33 7 0
3 25 121 55 262 36 163 61 259 70 264 21 11 35 72 35 150 0 60 -3 71 -25 91
-34 31 -78 39 -121 21 -49 -20 -88 -105 -90 -195 -1 -58 -108 -587 -120 -600
-3 -3 -2 40 3 95 12 147 9 498 -5 585 -14 83 -23 95 -90 113 -41 11 -43 13
-40 45 2 24 -3 38 -17 48 -22 16 -92 18 -117 3z m97 -9 c39 -15 21 -30 -35
-30 -53 0 -71 13 -43 29 23 13 45 14 78 1z m-55 -101 c0 -27 -4 -49 -10 -49
-5 0 -10 25 -10 56 0 34 4 53 10 49 6 -3 10 -28 10 -56z m56 -35 c-3 -8 -12
-14 -21 -14 -24 0 -21 97 3 102 13 3 18 -5 20 -35 2 -22 1 -46 -2 -53z m-437
17 c25 -27 61 -118 61 -155 0 -34 -25 -9 -32 32 -12 73 -43 112 -88 112 -20 0
-35 -8 -46 -25 -15 -23 -14 -27 20 -89 23 -42 32 -67 25 -71 -5 -4 -11 -5 -12
-4 -1 2 -10 18 -19 34 -10 17 -27 50 -39 75 -20 40 -20 47 -8 69 31 55 97 66
138 22z m922 3 c25 -23 24 -66 -3 -116 -13 -22 -30 -55 -40 -72 -14 -27 -17
-28 -23 -13 -5 12 3 35 24 68 45 73 39 119 -17 119 -53 0 -92 -48 -92 -114 0
-35 -12 -52 -29 -42 -11 7 9 87 32 133 24 46 55 65 96 59 18 -3 42 -13 52 -22z
m-583 -31 c16 -13 89 -17 116 -7 9 3 16 15 16 26 0 17 4 19 27 13 30 -7 53
-23 53 -35 0 -19 -70 -35 -150 -35 -86 1 -130 14 -130 39 0 17 44 37 49 22 2
-6 10 -17 19 -23z m-373 -23 c3 -5 9 -33 12 -62 6 -59 17 -78 42 -78 14 0 27
-47 75 -272 33 -150 61 -279 63 -285 4 -10 -12 -13 -60 -13 -54 0 -67 3 -71
18 -2 9 -28 127 -57 262 l-52 244 22 14 c27 18 27 57 1 100 -26 43 -27 82 -1
82 11 0 23 -4 26 -10z m915 -11 c0 -12 -8 -36 -19 -53 -33 -55 -35 -73 -7 -99
l25 -24 -56 -261 -57 -262 -64 0 -64 0 5 28 c51 236 108 502 112 520 3 13 13
22 25 22 25 0 40 29 40 75 0 46 15 75 40 75 14 0 20 -7 20 -21z m-300 -6 c0
-10 -26 -39 -58 -65 -31 -26 -68 -56 -82 -67 -14 -11 -20 -20 -14 -21 14 0 89
53 132 93 l32 31 0 -26 c0 -38 -95 -121 -191 -166 -44 -20 -79 -41 -79 -45 0
-26 165 62 224 119 26 24 49 44 51 44 3 0 5 -9 5 -19 0 -25 -85 -101 -154
-137 -31 -16 -56 -33 -56 -38 0 -10 164 -2 193 9 13 5 17 2 17 -13 0 -23 -38
-32 -137 -32 -41 0 -63 -4 -63 -11 0 -13 149 -7 183 6 13 5 17 2 17 -13 0 -23
-47 -32 -171 -32 -52 0 -79 -4 -79 -11 0 -13 201 -8 233 6 15 6 17 0 17 -59 0
-62 -2 -67 -26 -76 -40 -16 -184 -23 -247 -12 -61 10 -90 -1 -35 -14 47 -10
227 -7 265 5 34 10 47 4 34 -17 -8 -14 -104 -32 -169 -32 -29 0 -41 -4 -36
-11 6 -11 86 -7 172 8 25 4 32 2 32 -11 0 -11 -13 -18 -40 -22 -22 -4 -40 -11
-40 -16 0 -6 16 -7 40 -3 41 7 56 -6 23 -20 -36 -14 -230 -18 -297 -5 -60 11
-66 15 -66 37 l0 24 45 -27 c25 -14 49 -24 52 -21 3 4 -9 14 -27 24 -51 28
-80 53 -80 69 0 9 16 2 49 -21 50 -36 116 -68 164 -79 50 -12 28 10 -28 28
-31 9 -83 36 -118 60 -52 36 -62 47 -65 75 -3 29 -1 33 14 27 55 -21 159 -32
272 -28 99 4 52 19 -60 20 -182 1 -283 38 -194 70 40 15 135 96 124 107 -4 4
-19 -5 -35 -20 -31 -30 -112 -85 -126 -85 -4 0 -7 12 -5 28 2 21 9 28 31 30
15 2 27 8 27 13 0 6 -12 9 -27 7 -23 -2 -29 1 -31 20 -3 20 1 22 37 22 22 0
43 5 46 10 4 6 -12 10 -39 10 -39 0 -46 3 -46 20 0 16 7 20 38 21 20 0 46 4
57 9 24 10 15 12 -45 10 l-45 -1 3 58 c1 32 5 68 8 81 5 23 5 23 46 -12 65
-56 79 -42 15 15 -31 28 -57 57 -57 65 0 21 14 17 41 -12 29 -32 94 -63 132
-64 34 0 35 -13 1 -28 -14 -7 -22 -17 -19 -22 6 -10 118 61 132 82 12 21 -9
20 -31 -2 -22 -19 -31 -22 -73 -15 -26 4 -69 18 -95 32 -52 28 -66 50 -20 31
42 -17 210 -15 252 4 46 21 50 21 50 1z m-926 -16 c16 -11 16 -15 3 -25 -11
-10 -21 -10 -41 -1 -26 12 -31 20 -19 32 10 11 38 8 57 -6z m1546 -2 c0 -18
-34 -37 -54 -29 -21 8 -20 21 2 33 25 15 52 13 52 -4z m-1544 -80 c-4 -12 -56
-7 -73 7 -7 6 -13 16 -13 23 0 9 11 9 45 -4 25 -9 43 -20 41 -26z m1574 24 c0
-13 -68 -41 -80 -34 -16 10 -11 25 8 25 10 0 27 6 37 14 20 15 35 12 35 -5z
m-1606 -59 c22 0 35 -4 31 -10 -16 -25 -105 2 -105 32 0 6 8 4 18 -5 10 -10
35 -17 56 -17z m1616 6 c-16 -21 -74 -31 -97 -17 -15 9 -11 10 23 11 22 0 49
6 60 14 23 17 32 12 14 -8z m-1446 -300 c64 -142 114 -261 112 -264 -3 -3 -19
24 -34 59 -16 35 -70 155 -121 265 -50 111 -91 205 -91 210 0 22 27 -32 134
-270z m1344 265 c-25 -66 -243 -531 -249 -531 -4 0 45 114 108 253 63 138 117
260 120 270 3 9 10 17 15 17 5 0 8 -4 6 -9z m-545 -102 c-5 -5 -42 -11 -83
-14 l-75 -6 45 25 c25 13 61 38 80 54 l35 30 3 -40 c2 -23 0 -44 -5 -49z"/>
<path d="M1310 2201 c0 -27 162 -113 174 -92 3 5 -16 16 -42 26 -26 10 -60 28
-77 40 -45 32 -55 37 -55 26z"/>
<path d="M1394 1881 c-2 -2 -1 -8 2 -12 7 -12 214 -11 214 0 0 9 -207 20 -216
12z"/>
<path d="M1917 2513 c189 -2 497 -2 686 0 188 1 34 2 -343 2 -377 0 -531 -1
-343 -2z"/>
<path d="M2960 2505 c0 -8 9 -15 20 -15 11 0 20 7 20 15 0 8 -9 15 -20 15 -11
0 -20 -7 -20 -15z"/>
<path d="M893 2440 c0 -36 2 -50 4 -32 2 17 2 47 0 65 -2 17 -4 3 -4 -33z"/>
<path d="M2273 2435 c0 -38 2 -53 4 -32 2 20 2 52 0 70 -2 17 -4 1 -4 -38z"/>
<path d="M2793 2420 c0 -47 2 -66 4 -42 2 23 2 61 0 85 -2 23 -4 4 -4 -43z"/>
<path d="M203 2405 c0 -38 2 -53 4 -32 2 20 2 52 0 70 -2 17 -4 1 -4 -38z"/>
<path d="M370 2227 l0 -247 -80 0 -80 0 0 92 c0 50 -3 88 -6 85 -4 -4 -6 -45
-5 -91 l2 -85 -78 -4 -78 -3 77 -2 77 -2 4 -72 3 -73 2 73 2 72 79 0 80 0 4
-52 3 -53 2 52 2 52 73 4 72 3 -72 2 -72 2 -1 242 c0 133 -2 244 -5 246 -3 3
-5 -106 -5 -241z"/>
<path d="M543 2405 c0 -38 2 -53 4 -32 2 20 2 52 0 70 -2 17 -4 1 -4 -38z"/>
<path d="M2103 2410 c0 -36 2 -50 4 -32 2 17 2 47 0 65 -2 17 -4 3 -4 -33z"/>
<path d="M2623 2405 c0 -38 2 -53 4 -32 2 20 2 52 0 70 -2 17 -4 1 -4 -38z"/>
<path d="M2990 2393 c-5 -740 -3 -1633 3 -1633 4 0 7 383 7 850 0 468 -2 850
-5 850 -3 0 -5 -30 -5 -67z"/>
<path d="M2789 2239 c0 -52 0 -131 1 -176 l1 -83 -80 0 -80 0 -4 78 -3 77 -2
-77 -2 -77 -72 -4 -73 -3 72 -2 72 -2 4 -62 3 -63 2 63 2 62 80 0 79 0 4 -77
3 -78 2 77 2 77 73 4 72 3 -72 2 -72 2 0 171 c0 95 -3 174 -6 177 -3 3 -5 -37
-6 -89z"/>
<path d="M203 2235 c0 -38 2 -53 4 -32 2 20 2 52 0 70 -2 17 -4 1 -4 -38z"/>
<path d="M541 2223 c0 -46 2 -83 7 -83 4 0 6 26 4 57 -5 101 -9 111 -11 26z"/>
<path d="M2623 2235 c0 -38 2 -53 4 -32 2 20 2 52 0 70 -2 17 -4 1 -4 -38z"/>
<path d="M2103 2235 c0 -33 2 -45 4 -27 2 18 2 45 0 60 -2 15 -4 0 -4 -33z"/>
<path d="M893 2080 c0 -47 2 -66 4 -42 2 23 2 61 0 85 -2 23 -4 4 -4 -43z"/>
<path d="M2098 2153 c-2 -5 -1 -28 3 -53 l6 -45 1 53 c2 48 -2 63 -10 45z"/>
<path d="M428 2143 c17 -2 47 -2 65 0 17 2 3 4 -33 4 -36 0 -50 -2 -32 -4z"/>
<path d="M543 2065 c0 -38 2 -53 4 -32 2 20 2 52 0 70 -2 17 -4 1 -4 -38z"/>
<path d="M2274 1960 c0 -58 1 -79 3 -48 l4 57 72 4 72 3 -72 2 -72 2 -4 43
c-2 23 -3 -5 -3 -63z"/>
<path d="M597 1973 c18 -2 50 -2 70 0 21 2 7 4 -32 4 -38 0 -55 -2 -38 -4z"/>
<path d="M468 1910 c-29 -18 -21 -29 16 -23 25 4 44 0 68 -15 44 -28 55 -49
73 -132 16 -74 41 -124 57 -114 5 3 3 13 -7 24 -29 32 -35 76 -19 132 20 64 8
98 -32 98 -15 0 -35 7 -45 16 -22 20 -88 28 -111 14z"/>
<path d="M2407 1900 c-14 -11 -36 -20 -50 -20 -35 0 -51 -23 -43 -62 19 -100
19 -117 -3 -153 -25 -43 -27 -52 -4 -34 21 18 43 71 43 106 1 76 71 155 135
152 47 -2 51 1 31 16 -28 21 -79 19 -109 -5z"/>
<path d="M413 1839 c-85 -25 -84 -138 1 -174 64 -27 93 28 31 58 -20 9 -41 29
-47 43 -11 23 -10 29 11 45 28 23 50 24 96 5 39 -17 67 -57 85 -122 7 -24 19
-49 28 -56 13 -11 15 -10 9 7 -13 43 -38 111 -49 133 -27 52 -102 80 -165 61z"/>
<path d="M2473 1839 c-42 -12 -79 -58 -98 -121 -8 -28 -20 -57 -26 -65 -7 -7
-9 -16 -6 -19 12 -13 26 9 47 70 11 36 32 76 46 89 48 48 144 43 144 -8 0 -27
-31 -65 -54 -65 -20 0 -37 -25 -30 -44 10 -25 66 -20 97 8 84 78 -2 191 -120
155z"/>
<path d="M68 1803 c29 -2 74 -2 100 0 26 2 2 3 -53 3 -55 0 -76 -1 -47 -3z"/>
<path d="M2783 1803 c7 -7 159 -4 166 3 2 2 -35 4 -84 4 -49 0 -85 -3 -82 -7z"/>
<path d="M216 1771 c-12 -19 7 -40 65 -71 33 -18 62 -30 65 -28 6 7 -102 108
-115 108 -5 0 -12 -4 -15 -9z"/>
<path d="M2704 1751 c-54 -39 -91 -81 -73 -81 18 0 111 54 128 74 12 15 8 36
-8 36 -4 0 -26 -13 -47 -29z"/>
<path d="M218 1634 c-21 -9 -38 -20 -38 -25 0 -5 47 -9 105 -9 107 0 126 7 79
29 -45 20 -106 22 -146 5z"/>
<path d="M2636 1637 c-22 -7 -41 -18 -44 -25 -3 -9 22 -12 102 -12 58 0 106 4
106 9 0 10 -85 41 -109 40 -9 0 -34 -6 -55 -12z"/>
<path d="M543 1540 c0 -36 2 -50 4 -32 2 17 2 47 0 65 -2 17 -4 3 -4 -33z"/>
<path d="M2273 1520 c0 -41 2 -58 4 -37 2 20 2 54 0 75 -2 20 -4 3 -4 -38z"/>
<path d="M369 1507 c-2 -35 0 -57 6 -57 6 0 9 18 7 43 -5 71 -8 75 -13 14z"/>
<path d="M2789 1507 c-2 -35 0 -57 6 -57 6 0 9 18 7 43 -5 71 -8 75 -13 14z"/>
<path d="M198 1463 c-2 -5 0 -42 3 -83 l5 -75 2 83 c2 74 -1 96 -10 75z"/>
<path d="M98 1453 c18 -2 45 -2 60 0 15 2 0 4 -33 4 -33 0 -45 -2 -27 -4z"/>
<path d="M258 1453 c17 -2 47 -2 65 0 17 2 3 4 -33 4 -36 0 -50 -2 -32 -4z"/>
<path d="M428 1453 c17 -2 47 -2 65 0 17 2 3 4 -33 4 -36 0 -50 -2 -32 -4z"/>
<path d="M1488 1448 c8 -8 12 -49 12 -120 0 -91 -3 -108 -17 -117 -14 -8 1
-10 57 -11 86 0 114 13 136 66 29 68 8 151 -45 178 -37 20 -162 23 -143 4z
m138 -34 c23 -35 23 -133 1 -168 -19 -28 -63 -44 -78 -29 -5 5 -6 54 -3 116
l7 107 28 0 c20 0 34 -8 45 -26z"/>
<path d="M2508 1453 c17 -2 47 -2 65 0 17 2 3 4 -33 4 -36 0 -50 -2 -32 -4z"/>
<path d="M2678 1453 c17 -2 47 -2 65 0 17 2 3 4 -33 4 -36 0 -50 -2 -32 -4z"/>
<path d="M2848 1453 c18 -2 45 -2 60 0 15 2 0 4 -33 4 -33 0 -45 -2 -27 -4z"/>
<path d="M1035 1440 c-22 -4 -33 -8 -24 -9 12 -1 18 -16 23 -62 10 -99 7 -167
-6 -172 -18 -8 123 -8 150 -1 15 4 22 14 22 30 0 29 -16 32 -25 5 -4 -13 -18
-20 -43 -24 -20 -2 -40 -2 -44 0 -5 2 -8 29 -8 59 0 53 0 54 30 54 20 0 30 -5
30 -15 0 -8 5 -15 10 -15 12 0 13 67 1 74 -5 3 -11 -3 -14 -14 -3 -14 -14 -20
-31 -20 -22 0 -26 5 -26 28 0 15 -3 37 -6 48 -5 19 -1 22 33 27 30 3 41 0 55
-17 l18 -21 0 28 c0 26 -2 27 -52 26 -29 -1 -71 -5 -93 -9z"/>
<path d="M1287 1363 c-15 -48 -29 -100 -33 -116 -3 -15 -14 -32 -23 -37 -12
-7 -8 -9 19 -10 20 0 30 4 23 8 -7 4 -10 17 -6 30 5 19 12 22 53 22 41 0 50
-3 55 -21 5 -14 2 -25 -6 -30 -9 -5 7 -8 41 -8 45 0 51 2 34 11 -16 7 -30 39
-55 121 -28 92 -38 113 -55 115 -18 3 -24 -9 -47 -85z m57 -17 c22 -69 21 -71
-25 -71 -36 0 -39 2 -34 20 3 11 11 41 17 68 13 54 19 52 42 -17z"/>
<path d="M1728 1443 c8 -3 12 -31 12 -88 0 -105 -8 -145 -29 -146 -24 -3 87
-17 137 -18 41 -1 42 0 41 32 0 32 0 32 -16 10 -11 -17 -25 -23 -54 -23 l-39
0 0 110 c0 93 3 110 18 119 13 8 6 10 -33 10 -27 0 -44 -3 -37 -6z"/>
<path d="M1957 1416 c-29 -27 -51 -96 -42 -129 22 -78 53 -107 113 -107 60 0
112 89 97 168 -15 82 -111 121 -168 68z m87 -9 c31 -31 49 -112 35 -160 -28
-104 -119 -37 -119 88 0 42 5 60 20 75 26 26 36 25 64 -3z"/>
<path d="M2792 1368 l-2 -77 -42 -4 -43 -4 42 -1 42 -2 4 -77 3 -78 2 77 2 77
73 4 72 3 -72 2 -72 2 -4 78 -3 77 -2 -77z"/>
<path d="M760 1418 c0 -3 4 -8 10 -10 5 -1 14 -50 19 -108 8 -92 7 -107 -7
-117 -13 -11 -8 -13 31 -13 41 0 63 12 38 22 -5 2 -11 21 -13 43 -5 60 22 58
61 -4 26 -43 36 -51 61 -51 16 0 30 5 30 10 0 6 -6 10 -14 10 -7 0 -25 18 -40
40 l-26 39 25 25 c31 31 32 65 4 100 -21 26 -25 27 -100 24 -44 -2 -79 -6 -79
-10z m132 -15 c21 -19 25 -82 6 -101 -7 -7 -24 -12 -39 -12 -25 0 -27 3 -32
58 -2 31 -3 60 0 65 8 13 46 7 65 -10z"/>
<path d="M655 1410 c-22 -4 -33 -8 -24 -9 18 -1 29 -29 29 -77 0 -30 -2 -32
-42 -36 -24 -3 -46 -3 -50 -1 -13 7 -9 101 5 106 6 3 -9 6 -35 6 -44 1 -65
-12 -37 -21 7 -2 18 -49 25 -108 12 -96 11 -106 -4 -118 -14 -12 -10 -12 33
-6 50 7 72 14 43 14 -12 0 -18 14 -23 51 -4 27 -5 52 -4 54 2 2 25 6 50 10
l47 7 4 -49 c4 -35 1 -51 -11 -60 -12 -11 -7 -13 32 -13 42 0 63 13 37 22 -5
2 -15 47 -21 102 -10 75 -10 102 -1 117 14 21 14 21 -53 9z"/>
<path d="M2218 1397 c-58 -54 -62 -161 -8 -209 42 -38 89 -38 132 1 29 25 32
35 36 95 4 64 3 67 -31 101 -43 43 -91 47 -129 12z m95 -29 c41 -55 31 -179
-15 -194 -54 -17 -106 114 -75 189 14 33 21 38 43 35 15 -2 36 -15 47 -30z"/>
<path d="M2443 1378 c3 -11 -1 -65 -10 -120 -13 -75 -20 -98 -32 -99 -22 -1
17 -17 43 -18 17 -1 18 1 5 12 -13 10 -13 24 -4 92 12 87 14 85 40 -37 10 -48
22 -78 30 -78 7 0 34 47 61 104 27 58 50 103 52 102 1 -2 -4 -45 -13 -97 -10
-64 -20 -98 -32 -106 -15 -12 -13 -13 13 -13 16 0 40 -3 54 -6 22 -5 23 -4 9
8 -15 12 -15 22 -3 108 8 52 16 105 19 118 5 19 1 22 -24 22 -26 0 -32 -7 -71
-95 -24 -52 -45 -94 -46 -92 -1 1 -13 47 -25 102 -23 98 -31 115 -58 115 -9 0
-11 -7 -8 -22z"/>
<path d="M395 1380 c-16 -4 -49 -8 -72 -9 -47 -1 -57 -10 -45 -41 8 -21 8 -21
20 5 8 17 19 25 30 23 14 -3 20 -24 33 -111 14 -99 14 -109 0 -117 -13 -8 -11
-9 9 -9 33 2 90 16 68 18 -11 1 -19 12 -23 34 -13 80 -25 163 -25 180 0 26 44
22 58 -5 10 -22 11 -21 11 10 1 35 -6 37 -64 22z"/>
<path d="M125 1290 l-80 -6 77 -2 77 -2 4 -77 3 -78 2 88 c1 48 1 86 0 85 -2
-1 -39 -5 -83 -8z"/>
<path d="M1218 1173 c18 -2 45 -2 60 0 15 2 0 4 -33 4 -33 0 -45 -2 -27 -4z"/>
<path d="M1578 1133 c-8 -28 -3 -31 47 -22 l40 6 -37 2 c-26 1 -38 6 -40 19
-3 14 -5 13 -10 -5z"/>
<path d="M45 1114 c71 -8 165 -8 165 -1 0 4 -44 6 -97 5 -54 0 -85 -3 -68 -4z"/>
<path d="M948 1113 c17 -2 47 -2 65 0 17 2 3 4 -33 4 -36 0 -50 -2 -32 -4z"/>
<path d="M1457 1113 c18 -2 50 -2 70 0 21 2 7 4 -32 4 -38 0 -55 -2 -38 -4z"/>
<path d="M1962 1115 c7 -7 239 -8 246 -1 3 3 -52 6 -123 6 -71 0 -126 -2 -123
-5z"/>
<path d="M2742 1113 l47 -4 4 -77 3 -77 2 77 2 77 73 4 c39 1 16 3 -53 3 -69
0 -104 -1 -78 -3z"/>
<path d="M203 1025 c0 -38 2 -53 4 -32 2 20 2 52 0 70 -2 17 -4 1 -4 -38z"/>
<path d="M1165 1073 c-293 -18 -638 -87 -965 -191 -160 -52 -202 -76 -111 -65
27 3 70 1 95 -6 l45 -11 43 45 c32 34 61 52 111 70 37 14 76 25 85 25 11 -1
36 -33 67 -87 92 -158 272 -327 444 -415 175 -89 339 -123 558 -115 179 7 288
33 438 106 211 103 398 283 499 479 16 32 20 33 54 27 68 -12 152 -56 186 -98
33 -39 33 -39 71 -27 20 7 62 10 92 8 29 -3 56 -1 59 3 5 9 -294 106 -441 143
-224 56 -496 97 -730 112 -138 8 -131 -3 30 -46 66 -17 140 -41 164 -54 52
-25 87 -67 77 -91 -6 -17 -16 -17 -90 1 -36 9 -52 -13 -29 -38 23 -25 94 -24
118 2 9 10 18 31 18 45 -1 61 -61 101 -212 140 -47 13 -77 24 -66 24 26 1 261
-26 348 -40 l67 -11 -22 -31 c-87 -127 -194 -217 -333 -283 -117 -55 -223 -79
-350 -78 -261 1 -487 114 -652 327 -25 32 -43 61 -40 63 10 11 417 60 417 51
0 -3 -33 -12 -72 -21 -176 -39 -262 -121 -195 -184 40 -38 127 -24 127 19 0
22 -16 23 -92 4 -34 -9 -47 15 -28 51 19 34 95 68 238 106 67 18 122 36 122
40 0 8 -38 8 -145 1z m-346 -142 c261 -351 760 -441 1124 -202 84 55 191 159
233 225 16 26 37 46 47 46 17 0 229 -41 235 -46 6 -4 -77 -136 -120 -191 -242
-315 -677 -472 -1073 -389 -263 55 -507 216 -661 437 -46 64 -88 139 -82 144
7 5 195 43 219 44 21 1 36 -12 78 -68z"/>
<path d="M2274 855 c0 -55 1 -76 3 -47 2 29 2 74 0 100 -2 26 -3 2 -3 -53z"/>
<path d="M713 768 c-2 -5 33 -7 79 -7 84 2 77 6 -20 11 -30 2 -56 0 -59 -4z"/>
<path d="M2087 768 c-7 -4 31 -7 83 -6 97 1 92 5 -13 10 -33 2 -64 0 -70 -4z"/>
<path d="M897 723 c-11 -10 -8 -51 3 -58 13 -8 13 -35 1 -35 -5 0 -17 7 -26
16 -23 23 -32 8 -10 -16 22 -24 38 -25 55 -5 10 12 10 21 0 45 -15 35 -8 49
15 30 20 -17 32 -5 15 15 -13 15 -42 20 -53 8z"/>
<path d="M2040 675 c0 -41 4 -55 14 -55 8 0 18 5 21 10 4 6 16 8 26 5 15 -5
20 -3 17 10 -3 17 -61 85 -72 85 -3 0 -6 -25 -6 -55z"/>
<path d="M997 620 c-30 -52 -37 -88 -11 -55 27 34 54 94 46 99 -4 2 -20 -17
-35 -44z"/>
<path d="M1894 636 c-10 -8 -16 -18 -11 -22 4 -4 13 -2 19 4 17 17 38 15 38
-5 0 -9 -5 -31 -12 -50 -6 -18 -9 -35 -6 -38 9 -9 79 25 73 35 -4 7 -13 6 -25
0 -27 -15 -32 -12 -20 9 15 29 12 68 -6 75 -22 9 -28 8 -50 -8z"/>
<path d="M1075 593 c-22 -53 -29 -83 -18 -83 6 0 16 19 23 43 l13 42 7 -30 c5
-16 11 -42 14 -57 9 -41 20 -35 44 25 25 59 26 67 12 67 -5 0 -15 -18 -21 -40
-15 -50 -25 -44 -34 20 -4 28 -11 50 -16 50 -5 0 -16 -17 -24 -37z"/>
<path d="M1757 583 c-15 -14 -7 -80 11 -96 51 -47 98 21 56 81 -14 21 -53 30
-67 15z m51 -25 c7 -7 12 -25 12 -40 0 -21 -5 -28 -19 -28 -21 0 -31 19 -31
56 0 26 18 32 38 12z"/>
<path d="M1252 553 c-33 -28 -38 -67 -12 -93 23 -23 51 -24 58 -1 3 10 0 12
-13 7 -19 -7 -45 9 -45 29 0 7 8 23 19 36 16 20 21 22 35 10 9 -8 20 -11 24
-7 7 7 -24 36 -39 36 -4 0 -16 -8 -27 -17z"/>
<path d="M1623 553 c-24 -9 -13 -23 12 -17 20 5 25 2 25 -13 0 -11 -9 -28 -19
-37 -10 -10 -21 -27 -24 -38 -5 -18 -2 -20 25 -14 17 3 34 6 39 6 5 0 9 5 9
11 0 7 -10 9 -26 5 l-26 -7 21 30 c24 33 26 52 9 69 -13 13 -24 14 -45 5z"/>
<path d="M1378 493 c-2 -33 1 -61 7 -65 15 -11 65 -10 65 1 0 5 -12 11 -27 13
-34 4 -39 33 -6 33 33 1 38 12 8 19 -33 8 -34 39 0 34 13 -2 25 2 27 7 2 6
-13 11 -34 13 l-36 3 -4 -58z"/>
<path d="M1400 1035 c0 -30 16 -33 23 -5 3 12 14 20 26 20 20 0 21 -5 21 -104
0 -74 -4 -106 -12 -109 -7 -3 7 -5 32 -5 25 0 39 2 33 5 -9 3 -13 35 -13 109
0 94 2 104 18 104 11 0 24 -10 30 -22 10 -23 11 -23 11 5 l1 27 -85 0 c-84 0
-85 0 -85 -25z"/>
<path d="M1216 1009 c-83 -24 -106 -35 -106 -54 0 -27 21 -26 70 4 61 38 82
40 50 6 -17 -18 -21 -28 -13 -36 6 -6 16 -8 23 -4 14 9 60 81 60 95 0 13 -1
13 -84 -11z"/>
<path d="M1676 1023 c-12 -12 55 -103 76 -103 14 0 9 37 -7 50 -32 27 -4 21
50 -10 39 -22 60 -29 67 -22 23 23 -25 53 -120 75 -34 8 -63 12 -66 10z"/>
<path d="M1582 858 c-1 -54 1 -98 6 -98 4 0 6 30 4 67 -5 119 -9 131 -10 31z"/>
<path d="M335 848 c-35 -33 -59 -98 -36 -98 6 0 11 5 11 10 0 19 48 60 70 60
17 0 19 -3 11 -19 -12 -21 -1 -32 62 -70 70 -42 56 -101 -29 -117 -45 -8 -68
-1 -134 40 -30 19 -75 47 -99 62 -55 34 -130 43 -166 20 -49 -32 -25 -126 32
-126 30 0 49 26 33 45 -6 8 -20 17 -31 20 -28 9 -24 43 6 51 43 11 85 -4 169
-60 118 -80 158 -91 216 -61 l28 14 -5 -37 c-4 -28 0 -42 16 -59 38 -40 101
-43 101 -5 0 23 -19 42 -41 42 -9 0 -27 8 -39 18 -19 16 -21 22 -11 40 14 27
48 36 83 23 14 -5 56 -37 94 -71 38 -34 91 -77 119 -96 55 -38 53 -39 -45 -23
-87 15 -128 7 -176 -35 -44 -38 -41 -56 5 -32 39 21 91 21 91 1 0 -10 10 -15
30 -15 31 0 156 42 172 58 5 5 -12 23 -44 44 -29 19 -88 67 -131 106 -77 70
-131 98 -164 85 -13 -5 -15 -2 -9 13 28 70 8 141 -53 181 -49 33 -94 30 -136
-9z m130 -34 c25 -27 33 -54 16 -54 -18 0 -61 42 -61 61 0 26 16 24 45 -7z"/>
<path d="M2508 863 c-55 -35 -85 -132 -57 -185 10 -19 9 -20 -11 -15 -35 9
-86 -17 -151 -77 -32 -30 -88 -76 -124 -103 -36 -26 -65 -51 -65 -54 0 -9 152
-59 178 -59 12 0 25 7 28 15 8 19 64 20 90 0 34 -26 47 -18 25 14 -12 16 -41
37 -67 47 -40 15 -54 16 -126 5 -44 -7 -82 -10 -85 -7 -3 2 8 11 24 19 15 8
62 45 103 82 121 108 159 125 194 86 27 -30 16 -54 -31 -69 -44 -14 -60 -36
-42 -58 33 -40 113 9 113 70 0 29 3 35 16 31 66 -26 114 -13 223 61 84 57 134
73 173 55 32 -14 30 -28 -6 -49 -41 -23 -37 -56 6 -60 25 -2 37 3 53 24 11 15
21 37 21 50 0 33 -45 64 -92 64 -50 0 -85 -15 -181 -78 -43 -28 -94 -54 -112
-58 -69 -13 -146 36 -124 78 6 10 33 33 60 50 42 26 50 35 46 54 -8 45 38 26
78 -31 20 -29 29 -12 15 29 -24 75 -108 108 -172 69z m47 -45 c-8 -27 -41 -58
-61 -58 -22 0 -16 19 15 51 36 35 55 38 46 7z"/>
<path d="M1680 769 c-57 -4 -42 -6 65 -6 134 0 152 3 55 9 -25 2 -79 0 -120
-3z"/>
<path d="M1173 763 c43 -2 110 -2 150 0 40 1 5 3 -78 3 -82 0 -115 -2 -72 -3z"/>
<path d="M1336 712 c-22 -4 -42 -13 -44 -21 -4 -11 0 -12 14 -6 31 13 285 18
328 6 44 -12 69 -4 40 12 -22 12 -279 19 -338 9z"/>
<path d="M2789 625 c-2 -16 -2 -66 1 -110 l5 -80 5 81 c3 45 3 95 -1 110 l-5
29 -5 -30z"/>
<path d="M2987 334 c1 -146 4 -268 7 -272 3 -3 6 117 6 266 0 150 -3 272 -7
272 -5 0 -7 -120 -6 -266z"/>
<path d="M203 505 c0 -38 2 -53 4 -32 2 20 2 52 0 70 -2 17 -4 1 -4 -38z"/>
<path d="M373 495 c0 -33 2 -45 4 -27 2 18 2 45 0 60 -2 15 -4 0 -4 -33z"/>
<path d="M2623 495 c0 -33 2 -45 4 -27 2 18 2 45 0 60 -2 15 -4 0 -4 -33z"/>
<path d="M70 424 c59 -8 140 -8 140 -1 0 4 -37 6 -82 6 -46 -1 -72 -3 -58 -5z"/>
<path d="M293 423 l78 -4 -3 -174 c-2 -112 1 -175 7 -175 6 0 9 63 7 175 l-3
174 73 4 c40 1 3 3 -82 3 -85 0 -120 -2 -77 -3z"/>
<path d="M2472 425 c3 -3 76 -6 161 -6 l157 1 3 -163 3 -162 2 162 2 162 73 4
c39 1 -36 4 -167 5 -132 1 -237 0 -234 -3z"/>
<path d="M203 335 c0 -38 2 -53 4 -32 2 20 2 52 0 70 -2 17 -4 1 -4 -38z"/>
<path d="M2623 335 c0 -38 2 -53 4 -32 2 20 2 52 0 70 -2 17 -4 1 -4 -38z"/>
<path d="M921 334 c-25 -20 -31 -34 -31 -63 0 -43 17 -62 72 -85 20 -9 39 -20
43 -26 3 -5 23 -15 44 -21 32 -9 44 -8 74 6 52 25 68 76 43 137 -7 15 -3 15
41 3 26 -8 74 -19 105 -25 64 -13 108 -42 108 -71 0 -21 -31 -40 -37 -22 -16
48 -61 48 -49 -1 8 -33 47 -44 81 -22 31 20 32 52 3 83 l-21 23 88 0 c85 0 87
-1 72 -18 -38 -42 1 -114 53 -97 31 10 46 44 27 62 -13 14 -17 12 -32 -11 -10
-14 -23 -26 -30 -26 -26 0 -24 31 3 60 22 25 41 33 107 45 44 9 92 19 108 25
26 9 38 -2 17 -15 -5 -3 -10 -24 -10 -46 0 -29 7 -47 24 -64 42 -42 79 -41
156 3 8 5 33 17 55 28 67 32 74 107 12 145 -37 22 -92 22 -92 -1 0 -10 17 -18
55 -25 49 -10 55 -14 58 -38 2 -18 -5 -35 -22 -52 -32 -32 -51 -32 -52 0 -3
51 -54 74 -88 39 -28 -27 -16 -61 28 -79 l31 -13 -28 -11 c-41 -16 -61 -14
-91 10 -34 26 -36 84 -5 118 12 12 19 25 16 28 -3 3 -34 -2 -69 -10 -210 -52
-466 -49 -628 7 -21 7 -42 11 -44 8 -3 -2 6 -18 19 -34 61 -72 -3 -162 -91
-127 l-29 11 28 10 c30 11 46 51 30 77 -25 39 -93 13 -93 -36 0 -29 -10 -29
-44 -2 -21 16 -26 28 -24 53 3 29 7 32 53 40 28 5 53 14 57 19 23 36 -59 37
-101 1z m139 -99 c0 -18 -7 -28 -26 -35 -34 -13 -34 -13 -34 13 0 28 17 47 42
47 13 0 18 -8 18 -25z m910 10 c13 -16 10 -47 -6 -52 -19 -6 -58 32 -51 50 8
21 40 22 57 2z"/>
<path d="M540 287 c0 -26 4 -47 9 -47 8 0 3 79 -5 89 -2 2 -4 -17 -4 -42z"/>
<path d="M2270 175 c0 -87 3 -156 6 -152 7 6 6 299 -1 306 -3 2 -5 -67 -5
-154z"/>
<path d="M203 180 c0 -47 2 -66 4 -42 2 23 2 61 0 85 -2 23 -4 4 -4 -43z"/>
<path d="M543 165 c0 -38 2 -53 4 -32 2 20 2 52 0 70 -2 17 -4 1 -4 -38z"/>
<path d="M2623 165 c0 -38 2 -53 4 -32 2 20 2 52 0 70 -2 17 -4 1 -4 -38z"/>
<path d="M1480 176 c0 -28 -41 -66 -71 -66 -16 0 -29 -4 -29 -10 0 -13 39 -32
55 -26 8 3 15 -4 19 -17 3 -12 12 -31 20 -42 15 -20 15 -20 30 0 8 11 16 28
16 38 0 10 8 17 21 17 25 0 59 17 59 30 0 6 -13 10 -30 10 -34 0 -70 31 -70
60 0 11 -4 20 -10 20 -5 0 -10 -6 -10 -14z"/>
<path d="M888 125 c-1 -30 0 -65 4 -77 3 -13 6 12 7 55 1 89 -6 103 -11 22z"/>
<path d="M98 73 c18 -2 45 -2 60 0 15 2 0 4 -33 4 -33 0 -45 -2 -27 -4z"/>
<path d="M258 73 c17 -2 47 -2 65 0 17 2 3 4 -33 4 -36 0 -50 -2 -32 -4z"/>
<path d="M427 73 c18 -2 50 -2 70 0 21 2 7 4 -32 4 -38 0 -55 -2 -38 -4z"/>
<path d="M608 73 c18 -2 45 -2 60 0 15 2 0 4 -33 4 -33 0 -45 -2 -27 -4z"/>
<path d="M778 73 c17 -2 47 -2 65 0 17 2 3 4 -33 4 -36 0 -50 -2 -32 -4z"/>
<path d="M948 73 c17 -2 47 -2 65 0 17 2 3 4 -33 4 -36 0 -50 -2 -32 -4z"/>
<path d="M1128 73 c17 -2 47 -2 65 0 17 2 3 4 -33 4 -36 0 -50 -2 -32 -4z"/>
<path d="M1988 73 c17 -2 47 -2 65 0 17 2 3 4 -33 4 -36 0 -50 -2 -32 -4z"/>
<path d="M2158 73 c17 -2 47 -2 65 0 17 2 3 4 -33 4 -36 0 -50 -2 -32 -4z"/>
<path d="M2327 73 c18 -2 50 -2 70 0 21 2 7 4 -32 4 -38 0 -55 -2 -38 -4z"/>
<path d="M2508 73 c17 -2 47 -2 65 0 17 2 3 4 -33 4 -36 0 -50 -2 -32 -4z"/>
<path d="M2678 73 c17 -2 47 -2 65 0 17 2 3 4 -33 4 -36 0 -50 -2 -32 -4z"/>
<path d="M2848 73 c18 -2 45 -2 60 0 15 2 0 4 -33 4 -33 0 -45 -2 -27 -4z"/>
<path d="M2960 15 c0 -8 9 -15 20 -15 11 0 20 7 20 15 0 8 -9 15 -20 15 -11 0
-20 -7 -20 -15z"/>
<path d="M397 3 c189 -2 497 -2 685 0 189 1 35 2 -342 2 -377 0 -531 -1 -343
-2z"/>
<path d="M1892 3 c192 -2 504 -2 695 0 192 1 35 2 -347 2 -382 0 -539 -1 -348
-2z"/>
</g>
</svg>
